<?xml version="1.0" encoding="iso-8859-1"?>
<!-- Generator: Adobe Illustrator 19.0.0, SVG Export Plug-In . SVG Version: 6.00 Build 0)  -->
<svg version="1.1" id="Capa_1" xmlns="http://www.w3.org/2000/svg" xmlns:xlink="http://www.w3.org/1999/xlink" x="0px" y="0px"
	 viewBox="0 0 480 480" style="enable-background:new 0 0 480 480;" xml:space="preserve">
<path style="fill:#B3B3B3;" d="M288,432h112l32-32V80l-32-32H80L48,80v320l32,32h112H288z"/>
<path style="fill:#E6E6E6;" d="M96,96h288v288H96V96z"/>
<path style="fill:#8C6239;" d="M264,384v64c0,13.255-10.745,24-24,24l0,0c-13.255,0-24-10.745-24-24l0,0v-64H264z"/>
<path style="fill:#F7931E;" d="M372.208,230.224l-25.256,10.632l-10.768,25.976l10.36,25.432l-26.064,26.072l-25.44-10.4
	l-25.976,10.76L258.4,344h-36.8l-10.632-25.264L184.96,308l-25.44,10.4l-26.064-26.072l10.4-25.432l-10.768-25.976l-25.256-10.632
	v-36.936l25.256-10.632l10.768-25.976l-10.4-25.432l26.064-26.064l25.44,10.352l25.976-10.76L221.6,79.576h36.8l10.632,25.264
	l26.008,10.76l25.44-10.352l26.064,26.064l-10.36,25.432l10.768,25.976l25.256,10.632L372.208,230.224z"/>
<circle style="fill:#E6E6E6;" cx="240" cy="211.792" r="72"/>
<path style="fill:#754C24;" d="M216,432h48l0,0v16c0,13.255-10.745,24-24,24l0,0c-13.255,0-24-10.745-24-24l0,0V432L216,432z"/>
<path d="M440,80c0-2.122-0.844-4.156-2.344-5.656l-32-32c-1.5-1.5-3.534-2.344-5.656-2.344h-32V0h-16v40h-24V0h-16v40h-24V0h-16v40
	h-24V0h-16v40h-24V0h-16v40h-24V0h-16v40h-24V0h-16v40H80c-2.122,0-4.156,0.844-5.656,2.344l-32,32C40.844,75.844,40,77.878,40,80
	v32H0v16h40v24H0v16h40v24H0v16h40v24H0v16h40v24H0v16h40v24H0v16h40v24H0v16h40v32c0,2.122,0.844,4.156,2.344,5.656l32,32
	c1.5,1.5,3.534,2.344,5.656,2.344h32v40h16v-40h24v40h16v-40h24v-16H83.312L56,396.688V83.312L83.312,56h313.376L424,83.312v313.376
	L396.688,424H288v16h24v40h16v-40h24v40h16v-40h32c2.122,0,4.156-0.844,5.656-2.344l32-32c1.5-1.5,2.344-3.534,2.344-5.656v-32h40
	v-16h-40v-24h40v-16h-40v-24h40v-16h-40v-24h40v-16h-40v-24h40v-16h-40v-24h40v-16h-40v-24h40v-16h-40V80z"/>
<path d="M104,104h24V88H96c-4.418,0-8,3.582-8,8v32h16V104z"/>
<path d="M88,352v32c0,4.418,3.582,8,8,8h32v-16h-24v-24H88z"/>
<path d="M376,376h-24v16h32c4.418,0,8-3.582,8-8v-32h-16V376z"/>
<path d="M392,128V96c0-4.418-3.582-8-8-8h-32v16h24v24H392z"/>
<path d="M162.536,325.744l22.4-9.12l19.904,8.24l9.36,22.24c1.253,2.976,4.171,4.907,7.4,4.896H232v24h-16c-4.418,0-8,3.582-8,8v64
	c0,17.673,14.327,32,32,32c17.673,0,32-14.327,32-32v-64c0-4.418-3.582-8-8-8h-16v-24h10.4c3.22,0.001,6.127-1.928,7.376-4.896
	l9.36-22.232l19.904-8.248l22.4,9.12c2.982,1.217,6.403,0.526,8.68-1.752l26.064-26.072c2.275-2.275,2.965-5.692,1.752-8.672
	l-9.12-22.4l8.248-19.904l22.24-9.36c2.965-1.252,4.89-4.158,4.888-7.376V193.36c0.002-3.218-1.923-6.124-4.888-7.376l-22.24-9.36
	L344.8,156.72l9.12-22.4c1.213-2.98,0.523-6.397-1.752-8.672l-26.056-26.072c-2.277-2.278-5.698-2.969-8.68-1.752l-22.4,9.12
	l-19.832-8.24l-9.36-22.224c-1.247-2.971-4.154-4.904-7.376-4.904H221.6c-3.222,0-6.129,1.933-7.376,4.904L204.8,98.704
	l-19.904,8.248l-22.4-9.12c-2.982-1.217-6.403-0.526-8.68,1.752l-26.064,26.072c-2.275,2.275-2.965,5.692-1.752,8.672l9.12,22.4
	l-8.248,19.896l-22.24,9.36c-2.965,1.252-4.89,4.158-4.888,7.376v36.864c-0.002,3.218,1.923,6.124,4.888,7.376l22.24,9.36
	l8.328,19.896l-9.12,22.4c-1.213,2.98-0.523,6.397,1.752,8.672L153.856,324C156.135,326.275,159.555,326.963,162.536,325.744
	L162.536,325.744z M240,464c-8.837,0-16-7.163-16-16v-8h32v8C256,456.837,248.837,464,240,464z M256,424h-32v-32h32V424z
	 M151.2,263.776L140.44,237.8c-0.804-1.944-2.342-3.493-4.28-4.312l-20.368-8.584v-26.24l20.368-8.568
	c1.938-0.819,3.476-2.368,4.28-4.312l10.76-25.976c0.8-1.948,0.8-4.132,0-6.08l-8.36-20.52l18.56-18.552l20.512,8.352
	c1.945,0.816,4.135,0.816,6.08,0l25.984-10.768c1.946-0.806,3.495-2.347,4.312-4.288l8.568-20.36h26.24l8.568,20.36
	c0.817,1.941,2.366,3.482,4.312,4.288L292,122.992c1.942,0.816,4.13,0.816,6.072,0l20.52-8.352l18.56,18.552l-8.352,20.536
	c-0.8,1.948-0.8,4.132,0,6.08l10.76,25.976c0.804,1.944,2.342,3.493,4.28,4.312l20.368,8.576v26.232l-20.368,8.584
	c-1.938,0.819-3.476,2.368-4.28,4.312l-10.76,25.976c-0.798,1.945-0.798,4.127,0,6.072l8.336,20.552l-18.56,18.552l-20.512-8.352
	c-1.948-0.8-4.132-0.8-6.08,0L266,311.352c-1.946,0.806-3.495,2.347-4.312,4.288L253.12,336h-26.24l-8.568-20.368
	c-0.819-1.943-2.371-3.484-4.32-4.288L188,300.584c-1.945-0.798-4.127-0.798-6.072,0l-20.52,8.352L142.864,290.4l8.336-20.552
	C151.998,267.903,151.998,265.721,151.2,263.776L151.2,263.776z"/>
<path d="M240,291.792c44.183,0,80-35.817,80-80s-35.817-80-80-80s-80,35.817-80,80C160.053,255.953,195.839,291.739,240,291.792z
	 M240,147.792c35.346,0,64,28.654,64,64s-28.654,64-64,64s-64-28.654-64-64C176.04,176.462,204.67,147.832,240,147.792z"/>
<path d="M232,203.792h16v16h-16V203.792z"/>
<path d="M200,203.792h16v16h-16V203.792z"/>
<path d="M264,203.792h16v16h-16V203.792z"/>
<g>
</g>
<g>
</g>
<g>
</g>
<g>
</g>
<g>
</g>
<g>
</g>
<g>
</g>
<g>
</g>
<g>
</g>
<g>
</g>
<g>
</g>
<g>
</g>
<g>
</g>
<g>
</g>
<g>
</g>
</svg>
